<?xml version="1.0" encoding="utf-8"?>
<svg version="1.1" xmlns:xlink="http://www.w3.org/1999/xlink" width="76px" height="20px" xmlns="http://www.w3.org/2000/svg">
  <defs>
    <mask fill="white" id="clip4">
      <path d="M 0 18  L 0 2  C 0 0.879999999999995  0.470985915492959 0  1.07042253521127 0  L 33.5042253521119 0  L 74.9295774647887 0  C 75.529014084507 0  76 0.879999999999995  76 2  L 76 18  C 76 19.12  75.529014084507 20  74.9295774647887 20  L 1.07042253521127 20  C 0.470985915492959 20  0 19.12  0 18  Z " fill-rule="evenodd" />
    </mask>
  </defs>
  <g transform="matrix(1 0 0 1 -54 -284 )">
    <path d="M 0 18  L 0 2  C 0 0.879999999999995  0.470985915492959 0  1.07042253521127 0  L 33.5042253521119 0  L 74.9295774647887 0  C 75.529014084507 0  76 0.879999999999995  76 2  L 76 18  C 76 19.12  75.529014084507 20  74.9295774647887 20  L 1.07042253521127 20  C 0.470985915492959 20  0 19.12  0 18  Z " fill-rule="nonzero" fill="#ffffff" stroke="none" transform="matrix(1 0 0 1 54 284 )" />
    <path d="M 0 18  L 0 2  C 0 0.879999999999995  0.470985915492959 0  1.07042253521127 0  L 33.5042253521119 0  L 74.9295774647887 0  C 75.529014084507 0  76 0.879999999999995  76 2  L 76 18  C 76 19.12  75.529014084507 20  74.9295774647887 20  L 1.07042253521127 20  C 0.470985915492959 20  0 19.12  0 18  Z " stroke-width="2" stroke="#797979" fill="none" transform="matrix(1 0 0 1 54 284 )" mask="url(#clip4)" />
  </g>
</svg>